<svg xmlns="http://www.w3.org/2000/svg" xmlns:xlink="http://www.w3.org/1999/xlink" width="150" height="150" viewBox="0 0 150 150">
  <defs>
    <clipPath id="clip-icono_4">
      <rect width="150" height="150"/>
    </clipPath>
  </defs>
  <g id="icono_4" data-name="icono–4" clip-path="url(#clip-icono_4)">
    <rect width="150" height="150" fill="#fff"/>
    <g id="recycle-solid" transform="translate(-1000 -820)">
      <path id="recycle-solid-2" data-name="recycle-solid" d="M34.943,49.585a3.031,3.031,0,0,1-4.557,3.25l-7.712-4.819L13.043,63.428A6.069,6.069,0,0,0,18.178,72.7h9.843a2.272,2.272,0,0,1,2.272,2.272v7.573a2.272,2.272,0,0,1-2.272,2.272H18.2A18.187,18.187,0,0,1,2.785,57.01L12.407,41.6,4.7,36.783a3.031,3.031,0,0,1,.924-5.52l20.871-4.818a3.029,3.029,0,0,1,3.633,2.27ZM53.6,14.954l7.817,12.51-7.713,4.82a3.031,3.031,0,0,0,.924,5.52L75.5,42.623a3.029,3.029,0,0,0,3.633-2.27l4.818-20.871a3.031,3.031,0,0,0-4.557-3.25l-7.7,4.813L63.881,8.534a18.185,18.185,0,0,0-30.826,0l-3.4,5.446a2.272,2.272,0,0,0,.723,3.13L36.8,21.123A2.272,2.272,0,0,0,39.93,20.4l3.4-5.442a6.065,6.065,0,0,1,10.272,0ZM94.151,57.01l-5.209-8.343a2.272,2.272,0,0,0-3.131-.723L79.4,51.95a2.272,2.272,0,0,0-.723,3.131L83.9,63.432a6.069,6.069,0,0,1-5.138,9.27H60.585V63.618a3.031,3.031,0,0,0-5.171-2.142L40.268,76.618a3.029,3.029,0,0,0,0,4.284L55.414,96.047A3.031,3.031,0,0,0,60.585,93.9V84.819H78.738A18.187,18.187,0,0,0,94.151,57.01Z" transform="translate(1026.463 847)" fill="#a5b025"/>
    </g>
  </g>
</svg>
