<svg xmlns="http://www.w3.org/2000/svg" xmlns:xlink="http://www.w3.org/1999/xlink" width="150" height="150" viewBox="0 0 150 150">
  <defs>
    <clipPath id="clip-icono_3">
      <rect width="150" height="150"/>
    </clipPath>
  </defs>
  <g id="icono_3" data-name="icono–3" clip-path="url(#clip-icono_3)">
    <rect width="150" height="150" fill="#fff"/>
    <g id="pagelines-brands" transform="translate(-736 -818)">
      <path id="pagelines-brands-2" data-name="pagelines-brands" d="M83.34,76.064C71.386,105.722,42.747,87.78,42.747,87.78,33.961,105.527,19.446,116.939,2.7,117c-3.493,0-3.6-5.294,0-5.294,13.972-.065,26.143-9.264,34.106-23.887-8.917,3.45-25.731,6.053-35.06-17.834,23.648-9.741,34.518,2.43,38.683,9.871a78.894,78.894,0,0,0,4.686-17.291S14.8,67.321,12.677,41.286C38.517,30.894,45.785,57.927,45.785,57.927c.347-3.623.716-11.412.716-11.585,0,0-23.062-15.99-8.266-35.841,27.033,9.329,13.321,35.234,13.321,35.234.108.347.108,5.164,0,7.246,0,0,9.806-19.309,29.593-12.475-.911,29.072-30.786,23.084-30.786,23.084A91.28,91.28,0,0,1,46.023,80.4S64.031,60.487,83.34,76.064Z" transform="translate(769.099 829.724)" fill="#a5b025"/>
    </g>
  </g>
</svg>
