<svg xmlns="http://www.w3.org/2000/svg" xmlns:xlink="http://www.w3.org/1999/xlink" width="150" height="150" viewBox="0 0 150 150">
  <defs>
    <clipPath id="clip-Icono-1">
      <rect width="150" height="150"/>
    </clipPath>
  </defs>
  <g id="Icono-1" clip-path="url(#clip-Icono-1)">
    <rect width="150" height="150" fill="#fff"/>
    <g id="Símbolo_10_8" data-name="Símbolo 10 – 8" transform="translate(-215 -820)">
      <path id="hands-solid" d="M28.877,87.462a4.512,4.512,0,1,0-7.219,5.414l5.372,7.163a2.254,2.254,0,0,1-.211,2.947l-1.8,1.8a2.242,2.242,0,0,1-3.328-.155L9.024,89.436V68.512a4.512,4.512,0,1,0-9.024,0V99.306a6.775,6.775,0,0,0,1.48,4.23l14.678,18.936a8.416,8.416,0,0,1,1.466,3.06,2.209,2.209,0,0,0,2.157,1.636h18.57a2.263,2.263,0,0,0,2.256-2.256V109.12A18.076,18.076,0,0,0,37,98.291L28.877,87.462ZM85.728,64a4.507,4.507,0,0,0-4.512,4.512V89.436l-12.662,15.2a2.264,2.264,0,0,1-3.328.155l-1.8-1.8a2.254,2.254,0,0,1-.211-2.947l5.372-7.163a4.512,4.512,0,0,0-7.219-5.414L53.241,98.291a18.076,18.076,0,0,0-3.61,10.829v15.792a2.263,2.263,0,0,0,2.256,2.256h18.57a2.221,2.221,0,0,0,2.157-1.636,8.416,8.416,0,0,1,1.466-3.06l14.678-18.936a6.775,6.775,0,0,0,1.48-4.23V68.512A4.507,4.507,0,0,0,85.728,64Z" transform="translate(244.76 817.032)" fill="#a5b025"/>
      <path id="heart-solid" d="M50.606,35.321c-6-5.113-14.923-4.193-20.431,1.489l-2.157,2.223L25.861,36.81c-5.5-5.682-14.431-6.6-20.431-1.489A15.722,15.722,0,0,0,4.347,58.084L25.533,79.96a3.433,3.433,0,0,0,4.96,0L51.679,58.084a15.712,15.712,0,0,0-1.073-22.763Z" transform="translate(261.863 813.488)" fill="#a5b025"/>
    </g>
  </g>
</svg>
